#!OML:ASF E:\motion texture\Top Level 1\Subject 1\Session 1\male.ASF
:FULLY-SPECIFIED
:DEGREES
499
root -3.55152 17.4923 8.42761 -539.389 -82.2801 540.651
lowerback 4.40018 -4.55347 2.64953
upperback 1.93621 -6.50917 10.2396
thorax 0.499384 -3.57524 9.5517
lowerneck 5.86718 -18.4504 -18.4812
upperneck 17.6277 -33.6255 22.4227
head 12.0287 -16.338 6.18311
rclavicle -2.54444e-014 1.27222e-014
rhumerus -21.4034 -8.72183 -70.5371
rradius 29.1845
rwrist 11.3035
rhand -16.0604 -28.8755
rfingers 7.12502
rthumb 10.1419 -58.6111
lclavicle -2.54444e-014 1.27222e-014
lhumerus -20.5397 6.07449 81.9998
lradius 50.9443
lwrist -31.2798
lhand -17.0996 18.8177
lfingers 7.12502
lthumb 9.1392 48.5996
rfemur -23.9795 1.5488 12.973
rtibia 65.6088
rfoot 6.87184 -4.18776
rtoes 3.99138
lfemur -16.073 0.0841331 -20.0866
ltibia 36.7016
lfoot -16.8975 0.933438
ltoes -7.09806
500
root -3.67824 17.5148 8.41476 -538.979 -82.47 540.273
lowerback 4.32308 -4.57495 2.42118
upperback 1.86143 -6.51947 10.0489
thorax 0.465052 -3.56773 9.46658
lowerneck 5.68105 -18.3922 -18.4456
upperneck 17.7726 -33.465 22.2555
head 12.0336 -16.2577 6.14209
rclavicle -5.56597e-015 3.18055e-015
rhumerus -21.1537 -7.26377 -71.6976
rradius 30.019
rwrist 10.8015
rhand -15.8636 -28.3833
rfingers 7.12502
rthumb 10.3317 -58.1095
lclavicle -5.56597e-015 3.18055e-015
lhumerus -19.9346 5.26993 82.641
lradius 51.3707
lwrist -31.1124
lhand -17.1706 18.6913
lfingers 7.12502
lthumb 9.07073 48.4762
rfemur -24.5671 1.12214 13.082
rtibia 65.0812
rfoot 6.26157 -5.05651
rtoes 4.06764
lfemur -15.4029 -0.045584 -20.1727
ltibia 36.2348
lfoot -16.8918 0.850891
ltoes -7.45366
501
root -3.80433 17.539 8.4012 -538.569 -82.663 539.912
lowerback 4.2403 -4.59707 2.20803
upperback 1.78182 -6.53103 9.8631
thorax 0.428282 -3.56098 9.3783
lowerneck 5.49923 -18.3363 -18.4101
upperneck 17.9 -33.303 22.0948
head 12.0325 -16.1771 6.1039
rclavicle -1.43125e-014 4.77083e-014
rhumerus -20.9238 -5.8183 -72.8021
rradius 30.8784
rwrist 10.3601
rhand -15.6309 -27.8635
rfingers 7.12502
rthumb 10.5562 -57.5784
lclavicle -1.43125e-014 4.77083e-014
lhumerus -19.378 4.42743 83.2909
lradius 51.7901
lwrist -30.9405
lhand -17.2137 18.5313
lfingers 7.12502
lthumb 9.02918 48.3181
rfemur -25.1295 0.703428 13.2034
rtibia 64.3979
rfoot 5.59597 -5.933
rtoes 4.16728
lfemur -14.7385 -0.175433 -20.2468
ltibia 35.7337
lfoot -16.8506 0.76104
ltoes -7.82271
502
root -3.92987 17.5649 8.38692 -538.158 -82.8579 539.569
lowerback 4.15066 -4.61937 2.00944
upperback 1.69796 -6.5434 9.68225
thorax 0.390351 -3.55481 9.28716
lowerneck 5.32019 -18.2834 -18.3721
upperneck 18.0112 -33.1401 21.9381
head 12.0253 -16.0963 6.06715
rclavicle 1.16885e-013 -9.85972e-014
rhumerus -20.714 -4.39101 -73.849
rradius 31.7626
rwrist 9.97663
rhand -15.3708 -27.316
rfingers 7.12502
rthumb 10.8071 -57.0179
lclavicle 1.16885e-013 -9.85972e-014
lhumerus -18.8696 3.55026 83.9461
lradius 52.2009
lwrist -30.7639
lhand -17.2303 18.3378
lfingers 7.12502
lthumb 9.0131 48.1252
rfemur -25.6663 0.295647 13.3358
rtibia 63.5604
rfoot 4.88316 -6.80582
rtoes 4.28625
lfemur -14.0829 -0.305019 -20.3091
ltibia 35.2041
lfoot -16.7764 0.665727
ltoes -8.2085
503
root -4.05496 17.5919 8.37191 -537.74 -83.055 539.237
lowerback 4.05468 -4.64179 1.82389
upperback 1.60977 -6.55642 9.50634
thorax 0.35097 -3.54915 9.19402
lowerneck 5.14609 -18.2334 -18.3341
upperneck 18.1048 -32.9777 21.7883
head 12.0124 -16.0159 6.03295
rclavicle 0 -4.77083e-014
rhumerus -20.523 -2.99156 -74.8362
rradius 32.667
rwrist 9.6512
rhand -15.0882 -26.7536
rfingers 7.12502
rthumb 11.0797 -56.4412
lclavicle 0 -4.77083e-014
lhumerus -18.4096 2.64182 84.6041
lradius 52.6015
lwrist -30.5842
lhand -17.2176 18.1148
lfingers 7.12502
lthumb 9.02534 47.9017
rfemur -26.1755 -0.100938 13.4766
rtibia 62.5703
rfoot 4.12756 -7.66639
rtoes 4.41484
lfemur -13.4375 -0.435296 -20.3607
ltibia 34.6509
lfoot -16.674 0.565956
ltoes -8.61016
